<svg xmlns="http://www.w3.org/2000/svg" width="20" height="20" viewBox="0 0 23.944 30"><defs><style>.a{fill:#ffae75;}</style></defs><g transform="translate(-51.678)"><path class="a" d="M75.6,244.179l-1.217-8.406A6.738,6.738,0,0,0,67.714,230H59.585a6.738,6.738,0,0,0-6.669,5.772L51.7,244.179a2.051,2.051,0,0,0,2.03,2.345H73.571a2.051,2.051,0,0,0,2.03-2.345ZM64.286,231.758l1.507,7.083-2.143,2.022-2.143-2.022,1.507-7.083Zm9.507,12.907a.29.29,0,0,1-.221.1H53.729a.293.293,0,0,1-.29-.335l1.217-8.406a4.98,4.98,0,0,1,4.929-4.267h1.631l-1.463,6.878a1.474,1.474,0,0,0,.427,1.37l2.464,2.324a1.466,1.466,0,0,0,2.01,0l2.464-2.324h0a1.473,1.473,0,0,0,.428-1.37l-1.463-6.878h1.631a4.98,4.98,0,0,1,4.929,4.267l1.217,8.406A.29.29,0,0,1,73.792,244.664Z" transform="translate(0 -216.523)"/><path class="a" d="M154.664,7.561l-.413,2.407a1.463,1.463,0,0,0,2.125,1.544l2.161-1.136,2.161,1.136a1.465,1.465,0,0,0,2.125-1.544l-.413-2.407,1.749-1.7a1.465,1.465,0,0,0-.812-2.5l-2.417-.351L159.851.817h0a1.465,1.465,0,0,0-2.627,0l-1.081,2.19-2.417.351a1.465,1.465,0,0,0-.812,2.5Zm2.19-2.881a.879.879,0,0,0,.662-.481l1.023-2.072L159.56,4.2a.879.879,0,0,0,.662.481l2.286.332-1.654,1.613a.879.879,0,0,0-.253.778l.391,2.277L158.947,8.6a.879.879,0,0,0-.818,0l-2.045,1.075.391-2.277a.879.879,0,0,0-.253-.778l-1.654-1.613Z" transform="translate(-94.888 0)"/></g></svg>