<?xml version="1.0" standalone="no"?>
<!DOCTYPE svg PUBLIC "-//W3C//DTD SVG 20010904//EN"
 "http://www.w3.org/TR/2001/REC-SVG-20010904/DTD/svg10.dtd">
<svg version="1.0" xmlns="http://www.w3.org/2000/svg"
 width="1341.000000pt" height="242.000000pt" viewBox="0 0 1341.000000 242.000000"
 preserveAspectRatio="xMidYMid meet">
<metadata>
Created by potrace 1.16, written by Peter Selinger 2001-2019
</metadata>
<g transform="translate(0.000000,242.000000) scale(0.100000,-0.100000)"
fill="#000000" stroke="none">
<path d="M851 1570 c-457 -457 -831 -836 -831 -842 0 -13 28 -112 41 -143 4
-11 12 -33 16 -49 5 -16 16 -33 24 -37 15 -7 147 -47 187 -56 20 -5 103 75
565 535 829 827 834 832 848 832 7 0 321 -307 696 -682 669 -668 684 -683 721
-682 20 1 72 12 114 25 63 19 79 28 87 49 5 14 18 50 30 80 11 30 23 74 27 97
l6 43 -830 830 c-540 540 -837 830 -850 830 -13 0 -311 -291 -851 -830z m1677
-24 c776 -775 823 -824 813 -847 -5 -13 -17 -50 -26 -82 -10 -37 -21 -57 -31
-57 -8 0 -364 349 -792 775 -427 426 -783 775 -792 775 -8 0 -263 -246 -567
-548 -303 -301 -626 -621 -717 -711 l-167 -165 -72 18 c-39 10 -78 26 -85 35
-11 14 89 118 795 823 444 443 810 807 813 807 3 0 375 -370 828 -823z m-49
-243 c424 -423 771 -773 771 -779 0 -6 -34 -19 -75 -29 l-76 -18 -477 476
c-708 706 -905 897 -923 897 -9 0 -319 -300 -688 -667 -370 -368 -679 -669
-687 -671 -8 -2 -16 8 -19 25 -4 15 -11 41 -16 57 -22 70 -84 3 978 1054 235
232 430 422 434 422 3 0 354 -345 778 -767z m-2294 -634 c45 -16 68 -54 80
-132 7 -45 6 -47 -16 -47 -40 1 -118 25 -133 41 -25 27 -55 147 -40 161 6 6
49 -3 109 -23z"/>
<path d="M10335 2224 c-332 -80 -504 -177 -675 -383 -100 -121 -159 -246 -197
-416 -19 -87 -21 -326 -4 -410 51 -248 155 -422 346 -582 107 -89 263 -169
412 -210 93 -26 110 -27 308 -27 198 0 216 1 310 27 470 130 775 518 775 987
0 273 -97 512 -286 705 -130 133 -296 228 -489 281 -90 25 -119 28 -290 30
-104 1 -199 0 -210 -2z m346 -415 c171 -43 300 -141 371 -283 61 -122 79 -193
79 -316 0 -123 -18 -194 -79 -316 -30 -59 -57 -96 -106 -141 -88 -83 -133
-107 -255 -139 -88 -22 -118 -26 -190 -21 -178 11 -296 61 -406 172 -120 120
-169 251 -169 445 0 175 44 309 140 418 53 61 178 147 237 163 158 44 254 49
378 18z"/>
<path d="M4600 1210 l0 -990 230 0 230 0 0 275 0 275 289 0 c329 0 389 8 533
70 122 52 177 90 260 179 56 59 81 96 106 154 83 197 83 414 0 615 -27 66 -45
90 -123 168 -77 78 -105 98 -186 138 -52 25 -140 58 -195 73 l-99 27 -522 4
-523 3 0 -991z m965 587 c88 -17 135 -39 181 -86 53 -53 77 -112 82 -207 8
-152 -33 -238 -143 -296 -97 -51 -147 -58 -402 -58 l-223 0 0 330 0 330 218 0
c139 0 242 -5 287 -13z"/>
<path d="M6620 1210 l0 -990 235 0 235 0 0 990 0 990 -235 0 -235 0 0 -990z"/>
<path d="M7285 2169 c4 -16 34 -89 67 -162 33 -73 71 -160 84 -195 13 -35 51
-123 83 -195 32 -73 70 -159 84 -192 24 -60 86 -200 198 -452 32 -72 69 -160
83 -195 13 -35 37 -92 54 -128 67 -145 94 -206 96 -217 1 -7 22 -57 46 -113
l45 -100 233 2 234 3 48 115 c47 117 84 202 216 502 41 91 74 169 74 173 0 6
13 37 70 160 18 39 56 126 85 195 64 151 168 393 220 510 30 68 86 199 132
308 4 10 -43 12 -232 10 l-237 -3 -48 -115 c-54 -132 -122 -288 -221 -511 -38
-86 -69 -160 -69 -163 0 -7 -8 -26 -96 -219 -30 -65 -54 -121 -54 -125 1 -13
-104 -242 -110 -242 -3 0 -12 17 -19 38 -7 20 -49 120 -93 222 -44 102 -114
264 -155 360 -41 96 -102 236 -134 310 -32 74 -67 158 -77 185 -10 28 -40 98
-67 158 l-48 107 -249 0 -250 0 7 -31z"/>
<path d="M11690 2005 l0 -195 315 0 315 0 0 -795 0 -795 235 0 235 0 0 795 0
795 310 0 310 0 0 195 0 195 -860 0 -860 0 0 -195z"/>
<path d="M1055 947 l-629 -624 13 -59 c7 -32 16 -63 20 -69 4 -5 13 -30 20
-55 16 -56 27 -70 57 -70 13 0 24 -4 24 -8 0 -5 28 -13 63 -19 34 -5 70 -13
79 -17 13 -6 92 67 355 327 428 425 636 627 645 627 4 0 218 -211 475 -468
257 -257 475 -473 485 -480 13 -11 25 -10 65 2 26 8 74 22 105 31 31 9 61 22
66 28 5 7 19 49 32 95 13 45 27 85 31 88 5 3 9 13 9 22 0 21 -1249 1272 -1270
1272 -9 0 -299 -280 -645 -623z m672 561 c11 -13 279 -281 597 -595 317 -315
576 -577 576 -582 0 -9 -25 -20 -109 -45 -52 -16 -54 -16 -80 7 -14 12 -243
238 -509 502 -305 304 -489 480 -502 480 -12 0 -228 -208 -593 -572 -316 -315
-579 -573 -584 -573 -10 0 -33 65 -33 94 0 9 -4 16 -10 16 -5 0 -10 17 -10 38
0 37 15 53 518 549 284 282 560 555 612 607 52 52 98 95 101 96 3 0 15 -10 26
-22z m481 -767 c401 -397 501 -502 496 -517 -3 -10 -10 -28 -14 -39 -5 -11
-10 -31 -12 -44 -8 -67 -16 -60 -498 418 -311 309 -470 461 -482 459 -10 -2
-234 -218 -498 -481 l-480 -478 -50 7 c-28 4 -53 11 -56 15 -3 5 -14 9 -24 9
-10 0 -21 4 -25 10 -5 8 1122 1140 1136 1140 3 0 231 -224 507 -499z m702
-481 c0 -10 -4 -29 -9 -42 -5 -13 -15 -42 -22 -66 -11 -38 -17 -43 -53 -52
-23 -6 -49 -15 -58 -20 -10 -6 -27 -10 -39 -10 -19 0 -20 4 -14 42 19 122 20
124 93 146 86 27 102 27 102 2z"/>
</g>
</svg>
