<svg xmlns="http://www.w3.org/2000/svg" width="20" height="20" viewBox="0 0 22.876 30"><defs><style>.a{fill:#ffae75;}</style></defs><g transform="translate(-60.795)"><path class="a" d="M124.017,342a3.223,3.223,0,1,0,3.223,3.223A3.226,3.226,0,0,0,124.017,342Zm0,4.688a1.465,1.465,0,1,1,1.465-1.465A1.467,1.467,0,0,1,124.017,346.688Z" transform="translate(-56.483 -321.961)"/><path class="a" d="M296.138,125.827a.879.879,0,0,0-1.243,0l-1.45,1.45-1.45-1.45a.879.879,0,0,0-1.243,1.243l1.45,1.45-1.45,1.45a.879.879,0,1,0,1.243,1.243l1.45-1.45,1.45,1.45a.879.879,0,1,0,1.243-1.243l-1.45-1.45,1.45-1.45A.879.879,0,0,0,296.138,125.827Z" transform="translate(-216.241 -118.212)"/><path class="a" d="M82.728,2.7a3.2,3.2,0,0,0-2.28-.945H78.986V1.465A1.467,1.467,0,0,0,77.521,0H66.974a1.467,1.467,0,0,0-1.465,1.465v.293H64.042a3.227,3.227,0,0,0-3.223,3.219l-.024,21.8A3.223,3.223,0,0,0,64.018,30H80.424a3.227,3.227,0,0,0,3.223-3.219l.024-21.8A3.2,3.2,0,0,0,82.728,2.7ZM67.267,1.758h9.961V3.516H67.267ZM81.889,26.779a1.467,1.467,0,0,1-1.465,1.463H64.018a1.465,1.465,0,0,1-1.465-1.466l.024-21.8a1.467,1.467,0,0,1,1.465-1.463h1.467v.293a1.467,1.467,0,0,0,1.465,1.465H77.521a1.467,1.467,0,0,0,1.465-1.465V3.516h1.462a1.465,1.465,0,0,1,1.465,1.466Z" transform="translate(0 0)"/><path class="a" d="M131.89,140.735l-5.108-1.941a2.651,2.651,0,0,1-1.7-2.465v-3.036l.574.574a.879.879,0,0,0,1.243-1.243l-2.079-2.079a.879.879,0,0,0-1.243,0l-2.069,2.069a.879.879,0,0,0,1.243,1.243l.574-.574v3.045a4.418,4.418,0,0,0,2.834,4.108l5.108,1.941a2.651,2.651,0,0,1,1.7,2.465v3.417a.879.879,0,0,0,1.758,0v-3.417A4.418,4.418,0,0,0,131.89,140.735Z" transform="translate(-56.912 -122.654)"/></g></svg>