<svg xmlns="http://www.w3.org/2000/svg" width="29.744" height="30" viewBox="0 0 29.744 30"><defs><style>.a{fill:#c75200;}</style></defs><g transform="translate(-0.5)"><path class="a" d="M29.8,18.242,28.166,17.3a2.651,2.651,0,0,1,0-4.592l1.638-.946a.879.879,0,0,0,.322-1.2L26.6,4.443a.879.879,0,0,0-1.2-.322l-1.638.946a2.651,2.651,0,0,1-3.976-2.3V.879A.879.879,0,0,0,18.9,0h-7.06a.879.879,0,0,0-.879.879V2.771a2.65,2.65,0,0,1-3.976,2.3L5.349,4.121a.879.879,0,0,0-1.2.322L.618,10.557a.879.879,0,0,0,.322,1.2l1.638.946a2.651,2.651,0,0,1,0,4.592L.94,18.242a.879.879,0,0,0-.322,1.2l3.53,6.115a.879.879,0,0,0,1.2.322l1.638-.946a2.65,2.65,0,0,1,3.976,2.3v1.892a.879.879,0,0,0,.879.879H18.9a.879.879,0,0,0,.879-.879V27.229a2.651,2.651,0,0,1,3.977-2.3l1.638.946a.879.879,0,0,0,1.2-.322l3.53-6.115A.879.879,0,0,0,29.8,18.242Zm-4.291,5.675-.877-.507a4.408,4.408,0,0,0-6.613,3.818v1.013h-5.3V27.229a4.408,4.408,0,0,0-6.613-3.818l-.877.507L2.58,19.325l.877-.507a4.409,4.409,0,0,0,0-7.637l-.877-.507L5.231,6.083l.877.507a4.408,4.408,0,0,0,6.613-3.818V1.758h5.3V2.771a4.408,4.408,0,0,0,6.613,3.818l.877-.507,2.651,4.592-.877.507a4.409,4.409,0,0,0,0,7.637l.877.507Zm0,0"/><path class="a" d="M155.476,151a6.152,6.152,0,1,0,6.152,6.152A6.159,6.159,0,0,0,155.476,151Zm0,10.547a4.395,4.395,0,1,1,4.394-4.395A4.4,4.4,0,0,1,155.476,161.547Zm0,0" transform="translate(-140.104 -142.152)"/></g></svg>